<?xml version="1.0" encoding="iso-8859-1"?>
<!-- Uploaded to: SVG Repo, www.svgrepo.com, Generator: SVG Repo Mixer Tools -->
<svg fill="#000000" height="800px" width="800px" version="1.1" id="Layer_1" xmlns="http://www.w3.org/2000/svg" xmlns:xlink="http://www.w3.org/1999/xlink" 
	 viewBox="0 0 512 512" xml:space="preserve">
<path d="M430.261,428.118c25.155-107.47,25.168-236.657,0.001-344.239l14.731-61.882C447.666,10.777,439.143,0,427.619,0H84.38
	C72.847,0,64.336,10.787,67.006,21.997l14.731,61.884c-25.162,107.519-25.157,236.717,0,344.239l-14.731,61.883
	C64.334,501.223,72.858,512,84.38,512h343.239c11.533,0,20.044-10.787,17.375-21.997L430.261,428.118z M114.323,410.318
	c-20.863-96.5-20.863-212.12,0-308.636h283.355c20.863,96.514,20.863,212.136,0,308.636H114.323z M405.008,35.721l-7.197,30.234
	H114.19l-7.197-30.234H405.008z M106.993,476.279l7.198-30.239H397.81l7.198,30.239H106.993z"/>
<path d="M255.999,238.732c-42.426,0-76.943,30.833-76.943,68.732c0,40.63,35.705,53.079,76.943,53.079
	c41.185,0,76.943-12.417,76.943-53.079C332.941,269.564,298.425,238.732,255.999,238.732z M255.999,324.821
	c-41.222,0-41.222-11.724-41.222-17.358c0-18.202,18.492-33.011,41.222-33.011s41.222,14.809,41.222,33.011
	C297.22,313.098,297.22,324.821,255.999,324.821z"/>
<path d="M255.999,233.473c23.27,0,42.201-18.931,42.201-42.201s-18.931-42.201-42.201-42.201c-23.269,0-42.201,18.931-42.201,42.201
	S232.729,233.473,255.999,233.473z M255.999,184.793c3.573,0,6.48,2.906,6.48,6.48s-2.906,6.48-6.48,6.48
	c-3.572,0-6.48-2.906-6.48-6.48S252.426,184.793,255.999,184.793z"/>
<path d="M367.807,184.101c-19.051-13.455-45.36-8.928-58.816,10.126c-13.423,19.007-8.881,45.392,10.126,58.816
	c19.013,13.425,45.395,8.875,58.816-10.126c0,0,0,0,0.001-0.001C391.355,223.908,386.813,197.524,367.807,184.101z M348.755,222.309
	c-2.062,2.92-6.113,3.615-9.031,1.556c-2.918-2.061-3.616-6.113-1.555-9.031c2.068-2.928,6.114-3.615,9.031-1.555
	C350.118,215.34,350.816,219.39,348.755,222.309z"/>
<path d="M210.737,218.573c0-23.27-18.931-42.201-42.201-42.201s-42.201,18.931-42.201,42.201c0,23.269,18.931,42.201,42.201,42.201
	S210.737,241.843,210.737,218.573z M168.538,225.053c-3.573,0-6.48-2.906-6.48-6.48s2.906-6.48,6.48-6.48
	c3.572,0,6.48,2.906,6.48,6.48C175.016,222.146,172.11,225.053,168.538,225.053z"/>
</svg>